<svg xmlns="http://www.w3.org/2000/svg" viewBox="0 0 152.46 152.46"><defs><style>.cls-1{fill:#66dd96;}.cls-2,.cls-3{fill:#fff;stroke:#66dd96;stroke-miterlimit:10;}.cls-3{stroke-width:2px;}.cls-4{fill:none;}.cls-5{fill:#202528;opacity:0.63;}</style></defs><g id="Layer_2" data-name="Layer 2"><g id="background"><rect class="cls-1" width="152.46" height="152.46" rx="11.59"/></g><g id="mail"><path class="cls-2" d="M128.22,52l-64.7,49.12a2.61,2.61,0,0,1-3.7-.49L33.32,65.08a2.68,2.68,0,0,1,.56-3.73L98.57,12.22a2.64,2.64,0,0,1,3.71.49l26.5,35.57A2.7,2.7,0,0,1,128.22,52Z"/><path class="cls-3" d="M79.38,57a.89.89,0,0,1,.92,1.24L71.21,79.72l-9.07,21.46a.91.91,0,0,1-1.56.22L46.7,82.76,32.81,64.12a.92.92,0,0,1,.64-1.45l22.94-2.85Z"/><path class="cls-3" d="M81.92,55a.89.89,0,0,0,.92,1.24l23-2.85,23-2.85a.92.92,0,0,0,.63-1.45L115.52,30.49,101.64,11.85a.91.91,0,0,0-1.56.22L91,33.53Z"/><path class="cls-3" d="M32,62.78,100.86,11.6,89.48,60.4a5.64,5.64,0,0,1-5.8,4.45Z"/></g><g id="filter"><line class="cls-4" x1="22.61" y1="52.23" x2="23.73" y2="52.23"/><line class="cls-4" x1="23.73" y1="52.23" x2="22.61" y2="52.23"/><line class="cls-4" x1="54.15" y1="46.82" x2="54.15" y2="46.82"/><line class="cls-4" x1="33.64" y1="64.19" x2="33.49" y2="64.19"/><path class="cls-5" d="M31.3,75.54h89.89a1.22,1.22,0,0,1,1.13,1.91L84.74,125.78a1.15,1.15,0,0,0-.24.69v18.77a1.38,1.38,0,0,1-2.09,1l-14.73-8.17a1.19,1.19,0,0,1-.65-1V126.47a1.09,1.09,0,0,0-.24-.69l-37-47.63A1.66,1.66,0,0,1,31.3,75.54Z"/></g></g></svg>